# xmcd
#
# Track frame offsets:
#	150
#	21761
#	47330
#	67917
#	84323
#	107172
#	130151
#	158527
#	182031
#	201918
#	225673
#	246316
#
# Disc length: 3516 seconds
#
# Revision: 1
# Processed by: cddbd v1.5.2PL0 Copyright (c) Steve Scherf et al.
# Submitted via: audiograbber 1.82.02
#
DISCID=910dba0c
DTITLE=Alannah Myles - The Very Best Of
DYEAR=1999
DGENRE=Rock
TTITLE0=Black Velvet
TTITLE1=Break The Silence
TTITLE2=Everybody's Breaking Up
TTITLE3=Love Is
TTITLE4=Song Instead Of A Kiss
TTITLE5=Sonny Say You Will
TTITLE6=Our World Our Time
TTITLE7=Long, Long Time
TTITLE8=Great Divide
TTITLE9=Family Secret
TTITLE10=Lover Of Mine
TTITLE11=Bad 4 You
EXTD=
EXTT0=
EXTT1=
EXTT2=
EXTT3=
EXTT4=
EXTT5=
EXTT6=
EXTT7=
EXTT8=
EXTT9=
EXTT10=
EXTT11=
PLAYORDER=
